<?xml version="1.0" standalone="no"?>
<!DOCTYPE svg PUBLIC "-//W3C//DTD SVG 20010904//EN"
 "http://www.w3.org/TR/2001/REC-SVG-20010904/DTD/svg10.dtd">
<svg version="1.0" xmlns="http://www.w3.org/2000/svg"
 width="500.000000pt" height="500.000000pt" viewBox="0 0 500.000000 500.000000"
 preserveAspectRatio="xMidYMid meet">
<metadata>
Created by potrace 1.14, written by Peter Selinger 2001-2017
</metadata>
<g transform="translate(0.000000,500.000000) scale(0.100000,-0.100000)"
fill="#000000" stroke="none">
<path d="M2225 4583 c-134 -17 -311 -61 -442 -108 -98 -36 -283 -120 -283
-129 0 -2 44 16 98 41 123 58 358 136 488 162 200 40 428 49 684 27 32 -3 20
1 -30 9 -111 18 -375 17 -515 -2z"/>
<path d="M2914 4551 c132 -29 336 -96 459 -151 59 -26 107 -46 107 -43 0 2
-42 24 -92 48 -155 72 -400 148 -512 160 -35 4 -23 -1 38 -14z"/>
<path d="M2322 4422 c-7 -5 -12 -22 -11 -38 0 -16 -2 -38 -6 -50 -9 -29 21
-58 49 -49 12 4 31 7 44 7 24 0 28 8 10 26 -8 8 -8 15 2 27 10 12 10 19 2 27
-8 8 -13 7 -18 -5 -3 -9 -12 -17 -20 -17 -11 0 -11 5 -2 24 19 43 -11 72 -50
48z m29 -35 c-13 -13 -26 -3 -16 12 3 6 11 8 17 5 6 -4 6 -10 -1 -17z m9 -62
c10 -13 9 -15 -9 -15 -12 0 -21 6 -21 15 0 8 4 15 9 15 5 0 14 -7 21 -15z"/>
<path d="M2668 4419 c-27 -15 -22 -45 12 -69 41 -29 39 -44 -5 -37 -26 4 -35
2 -35 -8 0 -20 46 -30 76 -16 33 15 30 46 -6 73 -16 12 -30 26 -30 31 0 5 14
7 30 5 32 -5 43 15 14 26 -22 8 -36 7 -56 -5z"/>
<path d="M2855 4375 c-61 -60 1 -155 75 -115 43 23 44 106 1 129 -30 17 -50
13 -76 -14z m75 -21 c10 -11 11 -23 4 -42 -7 -21 -16 -27 -39 -27 -25 0 -30 4
-33 28 -6 49 39 77 68 41z"/>
<path d="M1993 4373 c-26 -5 -28 -15 -12 -81 15 -61 19 -65 63 -57 45 9 49 34
5 31 -39 -1 -50 21 -15 30 35 9 33 24 -4 24 -40 0 -40 26 0 35 17 4 28 11 24
16 -5 9 -21 10 -61 2z"/>
<path d="M3500 4340 c8 -5 54 -34 102 -64 324 -201 585 -487 762 -836 98 -192
135 -304 204 -610 l11 -45 -6 50 c-9 87 -72 315 -119 435 -155 392 -430 734
-779 970 -59 40 -219 132 -175 100z"/>
<path d="M1458 4324 c-38 -20 -36 -28 2 -9 17 9 30 18 30 20 0 7 -1 6 -32 -11z"/>
<path d="M3071 4321 c-24 -24 -29 -92 -8 -109 19 -16 60 -19 64 -4 3 7 -4 12
-16 12 -33 0 -48 43 -27 75 18 28 28 30 58 14 17 -9 19 -8 16 8 -5 27 -61 30
-87 4z"/>
<path d="M1810 4310 c-26 -26 -26 -70 1 -104 22 -28 48 -33 80 -16 30 17 22
30 -18 27 -30 -2 -39 2 -49 22 -16 30 -2 61 26 61 11 0 20 7 20 15 0 22 -36
19 -60 -5z"/>
<path d="M1354 4262 c-388 -253 -700 -655 -843 -1087 -43 -130 -102 -379 -86
-363 3 3 17 57 30 119 79 381 260 723 533 1010 101 107 230 217 340 290 79 53
100 69 91 69 -3 0 -32 -17 -65 -38z"/>
<path d="M3241 4232 c-23 -64 -26 -82 -12 -82 5 0 18 24 29 53 27 67 29 79 16
84 -6 2 -21 -23 -33 -55z"/>
<path d="M1657 4254 c-3 -4 0 -19 8 -35 25 -47 17 -52 -26 -18 -59 46 -72 28
-34 -51 38 -80 63 -83 30 -4 l-14 35 45 -32 c61 -45 72 -30 37 49 -27 61 -33
68 -46 56z"/>
<path d="M3369 4171 c-30 -27 -51 -52 -47 -56 4 -4 15 -2 23 5 21 17 62 -1 67
-30 7 -44 23 -22 30 40 8 66 5 90 -10 90 -4 0 -33 -22 -63 -49z m51 -11 c0
-11 -7 -20 -15 -20 -18 0 -19 12 -3 28 16 16 18 15 18 -8z"/>
<path d="M2335 4160 c-465 -44 -888 -284 -1177 -670 -120 -161 -260 -462 -284
-611 l-7 -39 1633 0 1632 0 -7 38 c-16 88 -82 266 -142 384 -234 457 -668 781
-1173 877 -123 23 -347 33 -475 21z"/>
<path d="M1425 4130 c-5 -9 -3 -37 11 -112 6 -32 24 -38 24 -9 0 28 38 53 61
41 50 -27 37 2 -22 49 -54 43 -64 47 -74 31z m49 -61 c-10 -16 -24 -9 -24 12
0 18 2 19 15 9 8 -7 12 -16 9 -21z"/>
<path d="M3546 4086 c-20 -31 -36 -60 -36 -65 0 -17 69 -51 76 -39 4 7 3 13
-3 15 -6 2 -17 9 -26 16 -15 11 -13 17 14 61 20 32 27 52 21 58 -7 7 -23 -9
-46 -46z"/>
<path d="M1282 4042 c-9 -3 -6 -13 13 -37 14 -19 25 -36 25 -39 0 -3 -20 4
-45 16 -34 17 -48 19 -57 10 -8 -8 -1 -25 31 -67 23 -30 47 -53 52 -49 6 4 4
14 -5 27 -40 55 -39 57 14 34 32 -13 53 -17 59 -11 13 12 -70 122 -87 116z"/>
<path d="M3797 3889 c-55 -29 -70 -54 -24 -44 29 7 58 -17 55 -45 -2 -13 2
-24 7 -27 9 -3 55 115 55 140 0 15 -37 5 -93 -24z m56 -19 c-6 -21 -18 -26
-28 -11 -4 7 17 28 32 31 0 0 -1 -9 -4 -20z"/>
<path d="M1083 3883 c-13 -8 -23 -22 -23 -29 0 -16 78 -104 91 -104 14 0 10
22 -7 42 -15 16 -15 18 -1 24 8 3 25 0 37 -6 16 -9 25 -9 33 -1 8 8 2 14 -21
23 -18 7 -32 19 -32 28 0 38 -39 50 -77 23z m47 -27 c0 -8 -5 -18 -11 -22 -14
-8 -33 11 -25 25 10 16 36 13 36 -3z"/>
<path d="M3960 3774 c-48 -44 -54 -84 -16 -109 22 -15 28 -15 53 -2 41 22 79
65 67 77 -7 7 -22 -2 -44 -25 -36 -37 -67 -45 -77 -19 -4 10 9 31 37 59 52 53
36 70 -20 19z"/>
<path d="M948 3745 l-28 -32 51 -48 51 -48 30 31 c37 37 29 66 -8 31 -18 -17
-27 -20 -36 -11 -9 9 -7 16 7 32 24 26 11 39 -15 15 -15 -14 -23 -16 -32 -7
-9 9 -7 17 7 32 11 12 15 24 9 29 -5 5 -21 -6 -36 -24z"/>
<path d="M4082 3599 c-56 -43 -57 -50 -13 -86 41 -35 114 1 114 55 0 28 -26
72 -42 72 -3 0 -30 -19 -59 -41z m74 -16 c6 -20 2 -31 -16 -45 -27 -22 -44
-23 -61 -2 -11 14 -8 20 21 45 43 35 48 36 56 2z"/>
<path d="M850 3619 c0 -5 11 -26 25 -46 13 -20 23 -39 20 -41 -2 -2 -25 3 -51
12 -57 19 -54 19 -54 1 0 -9 24 -21 67 -34 96 -29 103 -20 47 64 -35 52 -54
68 -54 44z"/>
<path d="M4210 3433 c-30 -20 -57 -37 -59 -39 -1 -1 0 -7 4 -13 4 -7 27 3 63
25 70 45 68 42 56 54 -6 6 -29 -3 -64 -27z"/>
<path d="M730 3433 c-70 -25 -41 -133 35 -133 73 0 91 91 24 125 -30 16 -35
17 -59 8z m60 -41 c42 -34 5 -83 -45 -60 -30 13 -41 43 -25 63 17 20 43 19 70
-3z"/>
<path d="M4317 3364 c-3 -4 -2 -15 4 -25 8 -16 2 -22 -41 -44 -27 -14 -50 -30
-50 -35 0 -15 15 -12 65 12 43 21 45 21 58 3 27 -36 29 5 2 50 -27 48 -28 48
-38 39z"/>
<path d="M606 3231 c-34 -37 -15 -93 37 -110 45 -15 64 -6 86 39 l18 38 -35
16 c-19 9 -36 16 -37 14 -1 -2 -8 -13 -14 -25 -10 -19 -9 -23 4 -23 8 0 15 4
15 10 0 5 7 7 15 4 37 -15 1 -60 -40 -50 -36 9 -50 41 -31 71 19 29 5 42 -18
16z"/>
<path d="M1835 2633 c-26 -12 -40 -37 -99 -176 -37 -89 -77 -172 -89 -184
l-20 -23 43 0 c40 0 42 1 25 14 -16 12 -18 19 -10 43 l10 28 112 3 111 3 7
-32 c6 -25 3 -36 -11 -46 -15 -11 -8 -13 54 -13 l72 0 -16 25 c-9 13 -46 101
-84 195 -37 94 -69 173 -71 174 -2 2 -17 -3 -34 -11z m24 -159 c23 -55 41
-106 41 -112 0 -13 -190 -18 -190 -4 -1 19 95 231 101 224 4 -4 25 -52 48
-108z"/>
<path d="M469 2614 c19 -24 21 -40 21 -180 0 -125 -3 -155 -16 -168 -14 -15
-12 -16 27 -16 39 0 41 1 23 14 -17 13 -19 29 -21 153 l-3 138 79 -155 79
-155 24 55 c14 30 47 108 74 173 l49 118 3 -162 c2 -123 -1 -164 -10 -171 -7
-4 18 -8 57 -8 52 1 66 3 53 11 -16 9 -18 29 -18 184 0 155 2 175 18 184 13 8
5 10 -34 11 -30 0 -56 -5 -61 -12 -5 -7 -34 -73 -64 -145 -30 -73 -56 -133
-59 -133 -3 0 -38 65 -78 145 l-72 145 -46 0 -45 0 20 -26z"/>
<path d="M1003 2629 c15 -9 17 -29 17 -184 0 -155 -2 -175 -17 -184 -14 -8 0
-10 52 -10 52 0 66 2 53 10 -16 9 -18 29 -18 179 0 140 3 171 16 184 14 15 9
16 -53 16 -51 -1 -64 -3 -50 -11z"/>
<path d="M1208 2628 c17 -17 17 -364 0 -371 -7 -3 19 -6 57 -6 52 0 66 2 53
10 -15 8 -18 24 -18 80 l0 70 32 -3 c28 -3 41 -15 87 -80 l55 -78 54 0 54 0
-32 27 c-28 23 -110 125 -110 136 0 3 14 10 30 17 45 19 70 56 70 105 0 79
-59 104 -239 105 -82 0 -102 -3 -93 -12z m201 -9 c39 -14 61 -54 61 -112 0
-69 -24 -91 -93 -90 -31 1 -61 4 -67 8 -6 3 -10 48 -10 106 l0 99 39 0 c21 0
52 -5 70 -11z"/>
<path d="M2133 2623 c15 -17 17 -41 17 -176 0 -144 -2 -159 -20 -177 l-20 -20
108 1 c107 1 110 2 40 14 l-38 6 0 181 0 181 50 -6 c102 -12 145 -73 145 -202
0 -88 -19 -139 -56 -150 -11 -4 -18 -9 -15 -12 11 -12 92 39 114 71 69 102 45
229 -53 276 -36 17 -70 23 -168 27 -121 6 -122 6 -104 -14z"/>
<path d="M2583 2629 c15 -9 17 -29 17 -184 0 -155 -2 -175 -17 -184 -14 -8 0
-10 52 -10 52 0 66 2 53 10 -16 9 -18 29 -18 179 0 140 3 171 16 184 14 15 9
16 -53 16 -51 -1 -64 -3 -50 -11z"/>
<path d="M2788 2628 c8 -8 12 -64 12 -185 0 -153 -2 -173 -17 -182 -13 -7 16
-10 102 -9 66 1 102 3 80 5 -93 8 -85 -10 -85 194 l0 182 45 -6 c25 -2 55 -13
65 -22 41 -37 33 -125 -10 -125 -11 0 -20 -4 -20 -10 0 -5 9 -10 20 -10 12 0
32 -11 45 -25 33 -32 36 -124 5 -155 -26 -26 -5 -26 37 0 34 20 63 66 63 99 0
29 -46 79 -81 86 l-31 7 24 15 c51 35 64 85 29 117 -33 30 -313 54 -283 24z"/>
<path d="M3213 2630 c15 -10 17 -30 17 -185 0 -155 -2 -175 -17 -184 -14 -8
-1 -10 51 -11 59 0 67 2 52 13 -14 10 -16 25 -14 77 3 64 3 65 34 68 28 3 35
-3 85 -77 l54 -80 55 -1 54 0 -32 28 c-29 24 -102 119 -102 132 0 3 15 13 33
23 37 20 67 63 67 97 0 34 -26 75 -57 89 -36 18 -307 28 -280 11z m229 -28
c27 -26 39 -89 27 -134 -11 -44 -50 -60 -119 -50 l-45 7 -3 104 -3 104 62 -6
c42 -4 68 -12 81 -25z"/>
<path d="M3653 2622 c24 -27 25 -332 1 -356 -14 -15 -9 -16 53 -16 51 1 64 3
51 11 -16 9 -18 29 -18 184 0 155 2 175 18 184 13 8 0 10 -52 11 -66 0 -68 -1
-53 -18z"/>
<path d="M3853 2629 c15 -9 17 -28 17 -174 0 -150 -2 -167 -20 -185 -19 -19
-18 -19 130 -22 l149 -3 10 42 c17 64 13 71 -16 34 -32 -41 -78 -61 -138 -61
l-45 0 0 172 c0 145 3 174 17 190 15 17 13 18 -53 18 -52 -1 -65 -3 -51 -11z"/>
<path d="M4234 2621 c15 -17 17 -38 14 -174 -3 -134 -5 -158 -22 -175 l-18
-21 147 -3 c164 -3 153 -8 170 72 l7 35 -35 -37 c-40 -44 -72 -58 -133 -58
l-44 0 0 180 c0 160 2 180 18 189 13 8 0 10 -52 11 -67 0 -69 0 -52 -19z"/>
<path d="M4555 2104 c-104 -462 -302 -822 -616 -1118 -169 -158 -333 -271
-549 -375 -301 -146 -604 -208 -965 -199 -99 2 -157 1 -130 -3 77 -11 325 -10
433 2 737 80 1385 553 1688 1230 29 64 64 154 79 200 33 103 76 281 70 287 -2
2 -7 -9 -10 -24z"/>
<path d="M441 2095 c-1 -29 43 -196 79 -300 81 -231 247 -508 421 -703 225
-252 551 -467 884 -582 122 -42 339 -91 391 -89 27 2 27 2 4 6 -468 75 -844
258 -1169 568 -294 280 -498 641 -592 1045 -9 41 -18 66 -18 55z"/>
<path d="M880 2086 c0 -2 18 -57 41 -122 186 -540 626 -947 1174 -1082 149
-37 227 -46 410 -45 356 0 635 86 935 286 310 206 553 541 663 915 l16 52
-1620 0 c-890 0 -1619 -2 -1619 -4z"/>
<path d="M1256 1035 c-47 -51 -39 -120 17 -139 41 -15 58 7 20 26 -33 16 -41
49 -19 84 19 27 57 32 76 9 9 -11 16 -13 23 -6 7 7 5 17 -8 31 -26 29 -80 27
-109 -5z"/>
<path d="M3512 984 c-24 -17 -29 -53 -10 -72 7 -7 29 -12 50 -12 26 0 41 -5
45 -16 7 -19 -13 -34 -44 -34 -14 0 -23 -6 -23 -15 0 -18 41 -20 70 -5 34 18
44 48 25 76 -12 19 -24 24 -60 24 -25 0 -45 4 -45 8 0 14 23 32 42 32 10 0 18
7 18 15 0 20 -39 19 -68 -1z"/>
<path d="M1467 940 c-28 -22 -43 -74 -32 -110 4 -11 22 -28 41 -37 31 -15 37
-15 68 0 64 30 71 128 10 156 -36 16 -58 14 -87 -9z m82 -24 c21 -25 9 -79
-21 -95 -24 -14 -28 -14 -47 3 -27 24 -26 46 0 80 23 29 50 34 68 12z"/>
<path d="M3320 901 c-25 -11 -47 -26 -49 -36 -2 -14 1 -16 15 -11 11 4 23 8
27 9 5 1 20 -26 34 -60 14 -35 31 -63 39 -63 19 0 18 11 -10 79 l-24 59 25 11
c13 6 21 16 18 21 -8 14 -23 12 -75 -9z"/>
<path d="M1717 873 c-7 -11 -47 -143 -47 -154 0 -5 7 -9 15 -9 9 0 19 17 26
45 6 25 15 45 19 45 4 0 12 -26 16 -57 7 -47 13 -59 29 -61 17 -2 24 9 43 73
21 71 22 95 3 95 -5 0 -14 -20 -21 -45 -7 -25 -16 -48 -20 -50 -4 -3 -11 20
-15 50 -4 39 -12 58 -25 65 -10 6 -21 7 -23 3z"/>
<path d="M3153 843 c-8 -3 -9 -12 -4 -26 4 -12 11 -35 15 -52 l7 -30 -43 43
c-54 52 -83 56 -74 12 15 -78 38 -140 52 -140 17 0 17 5 -1 65 l-14 48 48 -47
c34 -33 52 -45 65 -40 9 4 15 13 12 21 -3 7 -13 42 -22 76 -17 67 -23 77 -41
70z"/>
<path d="M1950 785 c-17 -21 -5 -59 25 -79 14 -9 25 -23 25 -31 0 -18 -41 -20
-58 -3 -9 9 -15 9 -24 0 -9 -9 -8 -15 8 -27 25 -19 79 -19 98 1 25 25 19 51
-19 80 -19 14 -35 30 -35 35 0 12 37 11 60 -1 13 -7 19 -6 24 5 12 31 -80 49
-104 20z"/>
<path d="M2854 753 c-3 -16 -12 -53 -20 -84 -17 -70 -17 -69 1 -69 8 0 17 11
21 24 8 34 62 42 86 12 11 -14 20 -18 27 -11 7 7 -4 34 -32 82 -45 79 -72 93
-83 46z m56 -65 c0 -5 -9 -8 -20 -8 -21 0 -24 8 -14 34 6 15 8 15 20 -1 7 -10
14 -21 14 -25z"/>
<path d="M2155 706 c-9 -92 17 -128 80 -112 32 8 44 32 52 106 5 50 3 60 -9
60 -12 0 -18 -16 -23 -57 -7 -61 -18 -83 -41 -83 -23 0 -32 33 -25 93 6 49 5
57 -10 57 -13 0 -18 -13 -24 -64z"/>
<path d="M2628 753 c-43 -5 -55 -33 -14 -33 22 0 24 -5 31 -70 5 -52 11 -70
22 -70 12 0 14 13 12 73 -4 68 -3 72 19 75 12 2 22 10 22 18 0 14 -12 15 -92
7z"/>
<path d="M2400 665 l0 -85 56 0 c64 0 73 23 10 28 l-37 3 7 70 c6 66 6 69 -15
69 -20 0 -21 -5 -21 -85z"/>
</g>
</svg>
